<mxfile host="65bd71144e">
    <diagram id="ZwStVZu0NSaVZn3oAPYZ" name="Strona-1">
        <mxGraphModel dx="895" dy="747" grid="1" gridSize="10" guides="1" tooltips="1" connect="1" arrows="1" fold="1" page="1" pageScale="1" pageWidth="1169" pageHeight="827" math="0" shadow="0">
            <root>
                <mxCell id="0"/>
                <mxCell id="1" parent="0"/>
                <mxCell id="WvFcS5sh8y-C_8AQDAxK-107" style="edgeStyle=none;rounded=0;orthogonalLoop=1;jettySize=auto;html=1;exitX=0;exitY=0.3333333333333333;exitDx=0;exitDy=0;exitPerimeter=0;strokeWidth=2;fontSize=12;" parent="1" source="WvFcS5sh8y-C_8AQDAxK-64" target="WvFcS5sh8y-C_8AQDAxK-94" edge="1">
                    <mxGeometry relative="1" as="geometry"/>
                </mxCell>
                <mxCell id="WvFcS5sh8y-C_8AQDAxK-64" value="&#xa;&#xa;&#xa;&#xa;&#xa;&#xa;Recepcjonista" style="shape=umlActor;strokeWidth=2;fontSize=12;" parent="1" vertex="1">
                    <mxGeometry x="1040" y="551.5" width="44" height="65" as="geometry"/>
                </mxCell>
                <mxCell id="WvFcS5sh8y-C_8AQDAxK-67" style="endArrow=none;startFill=0;strokeWidth=2;fontSize=12;" parent="1" source="WvFcS5sh8y-C_8AQDAxK-74" target="WvFcS5sh8y-C_8AQDAxK-75" edge="1">
                    <mxGeometry relative="1" as="geometry">
                        <mxPoint x="523.6220338728726" y="378.41610626903116" as="sourcePoint"/>
                        <mxPoint x="407" y="270.5" as="targetPoint"/>
                    </mxGeometry>
                </mxCell>
                <mxCell id="WvFcS5sh8y-C_8AQDAxK-68" value="&lt;span style=&quot;white-space: nowrap;&quot;&gt;Formularz&amp;nbsp;&lt;/span&gt;&lt;div&gt;&lt;span style=&quot;white-space: nowrap;&quot;&gt;ręcznego&amp;nbsp;&lt;/span&gt;&lt;div&gt;&lt;span style=&quot;white-space: nowrap;&quot;&gt;wprowadzenia&lt;/span&gt;&lt;/div&gt;&lt;div&gt;&lt;span style=&quot;white-space: nowrap;&quot;&gt;&amp;nbsp;danych&lt;/span&gt;&lt;/div&gt;&lt;/div&gt;" style="shape=umlBoundary;whiteSpace=wrap;html=1;strokeWidth=2;fontSize=12;" parent="1" vertex="1">
                    <mxGeometry x="730" y="307.5" width="100" height="80" as="geometry"/>
                </mxCell>
                <mxCell id="WvFcS5sh8y-C_8AQDAxK-70" value="&amp;nbsp;Wejście na siłownie" style="shape=umlBoundary;whiteSpace=wrap;html=1;strokeWidth=2;fontSize=12;" parent="1" vertex="1">
                    <mxGeometry x="730" y="117.5" width="100" height="80" as="geometry"/>
                </mxCell>
                <mxCell id="WvFcS5sh8y-C_8AQDAxK-71" style="rounded=0;orthogonalLoop=1;jettySize=auto;html=1;entryX=0.985;entryY=0.46;entryDx=0;entryDy=0;entryPerimeter=0;exitX=0;exitY=0.3333333333333333;exitDx=0;exitDy=0;exitPerimeter=0;strokeWidth=2;fontSize=12;" parent="1" source="WvFcS5sh8y-C_8AQDAxK-64" target="WvFcS5sh8y-C_8AQDAxK-68" edge="1">
                    <mxGeometry relative="1" as="geometry"/>
                </mxCell>
                <mxCell id="WvFcS5sh8y-C_8AQDAxK-82" style="edgeStyle=none;rounded=0;orthogonalLoop=1;jettySize=auto;html=1;entryX=0.5;entryY=0;entryDx=0;entryDy=0;endArrow=none;startFill=0;strokeWidth=2;fontSize=12;exitX=0.506;exitY=0.966;exitDx=0;exitDy=0;exitPerimeter=0;" parent="1" source="WvFcS5sh8y-C_8AQDAxK-72" target="WvFcS5sh8y-C_8AQDAxK-75" edge="1">
                    <mxGeometry relative="1" as="geometry"/>
                </mxCell>
                <mxCell id="WvFcS5sh8y-C_8AQDAxK-72" value="&lt;span style=&quot;caret-color: rgb(0, 0, 0); color: rgb(0, 0, 0); font-family: Helvetica; font-style: normal; font-variant-caps: normal; font-weight: 400; letter-spacing: normal; text-align: center; text-indent: 0px; text-transform: none; white-space: nowrap; word-spacing: 0px; -webkit-text-stroke-width: 0px; background-color: rgb(251, 251, 251); text-decoration: none; float: none; display: inline !important;&quot;&gt;Sprawdzenie&lt;/span&gt;&lt;div&gt;&lt;span style=&quot;caret-color: rgb(0, 0, 0); color: rgb(0, 0, 0); font-family: Helvetica; font-style: normal; font-variant-caps: normal; font-weight: 400; letter-spacing: normal; text-align: center; text-indent: 0px; text-transform: none; white-space: nowrap; word-spacing: 0px; -webkit-text-stroke-width: 0px; background-color: rgb(251, 251, 251); text-decoration: none; float: none; display: inline !important;&quot;&gt;&amp;nbsp;ważności&lt;/span&gt;&lt;/div&gt;&lt;div&gt;&lt;span style=&quot;caret-color: rgb(0, 0, 0); color: rgb(0, 0, 0); font-family: Helvetica; font-style: normal; font-variant-caps: normal; font-weight: 400; letter-spacing: normal; text-align: center; text-indent: 0px; text-transform: none; white-space: nowrap; word-spacing: 0px; -webkit-text-stroke-width: 0px; background-color: rgb(251, 251, 251); text-decoration: none; float: none; display: inline !important;&quot;&gt;&amp;nbsp;karnetu&lt;/span&gt;&lt;/div&gt;" style="ellipse;shape=umlControl;whiteSpace=wrap;html=1;strokeWidth=2;fontSize=12;" parent="1" vertex="1">
                    <mxGeometry x="450" y="57" width="87" height="87" as="geometry"/>
                </mxCell>
                <mxCell id="WvFcS5sh8y-C_8AQDAxK-73" value="&lt;div&gt;&lt;span style=&quot;text-wrap-mode: nowrap;&quot;&gt;Informowanie&amp;nbsp;&lt;/span&gt;&lt;/div&gt;&lt;div&gt;&lt;span style=&quot;text-wrap-mode: nowrap;&quot;&gt;o nie ważnym&amp;nbsp;&lt;/span&gt;&lt;/div&gt;&lt;div&gt;&lt;span style=&quot;text-wrap-mode: nowrap;&quot;&gt;karnecie&amp;nbsp;&lt;/span&gt;&lt;/div&gt;" style="ellipse;shape=umlControl;whiteSpace=wrap;html=1;strokeWidth=2;fontSize=12;" parent="1" vertex="1">
                    <mxGeometry x="449" y="582" width="89" height="96" as="geometry"/>
                </mxCell>
                <mxCell id="WvFcS5sh8y-C_8AQDAxK-74" value="&lt;span style=&quot;white-space: nowrap;&quot;&gt;Rejestracja&lt;/span&gt;&lt;div&gt;&lt;span style=&quot;white-space: nowrap;&quot;&gt;&amp;nbsp;wejścia&amp;nbsp;&lt;/span&gt;&lt;/div&gt;&lt;div&gt;&lt;span style=&quot;white-space: nowrap;&quot;&gt;klienta&lt;/span&gt;&lt;br&gt;&lt;/div&gt;" style="ellipse;shape=umlControl;whiteSpace=wrap;html=1;strokeWidth=2;fontSize=12;" parent="1" vertex="1">
                    <mxGeometry x="86" y="54" width="85" height="93" as="geometry"/>
                </mxCell>
                <mxCell id="WvFcS5sh8y-C_8AQDAxK-75" value="&lt;span style=&quot;caret-color: rgb(0, 0, 0); color: rgb(0, 0, 0); font-family: Helvetica; font-style: normal; font-variant-caps: normal; font-weight: 400; letter-spacing: normal; text-align: center; text-indent: 0px; text-transform: none; white-space: nowrap; word-spacing: 0px; -webkit-text-stroke-width: 0px; background-color: rgb(251, 251, 251); text-decoration: none; float: none; display: inline !important;&quot;&gt;Baza Danych&lt;/span&gt;" style="ellipse;shape=umlEntity;whiteSpace=wrap;html=1;strokeWidth=2;fontSize=12;" parent="1" vertex="1">
                    <mxGeometry x="453.5" y="384" width="80" height="80" as="geometry"/>
                </mxCell>
                <mxCell id="WvFcS5sh8y-C_8AQDAxK-106" style="edgeStyle=none;rounded=0;orthogonalLoop=1;jettySize=auto;html=1;exitX=0;exitY=0.3333333333333333;exitDx=0;exitDy=0;exitPerimeter=0;strokeWidth=2;fontSize=12;" parent="1" source="WvFcS5sh8y-C_8AQDAxK-79" target="WvFcS5sh8y-C_8AQDAxK-94" edge="1">
                    <mxGeometry relative="1" as="geometry"/>
                </mxCell>
                <mxCell id="WvFcS5sh8y-C_8AQDAxK-79" value="&#xa;&#xa;&#xa;&#xa;&#xa;&#xa;Klient" style="shape=umlActor;strokeWidth=2;fontSize=12;" parent="1" vertex="1">
                    <mxGeometry x="1040" y="272.5" width="44" height="65" as="geometry"/>
                </mxCell>
                <mxCell id="WvFcS5sh8y-C_8AQDAxK-80" style="rounded=0;orthogonalLoop=1;jettySize=auto;html=1;entryX=0.976;entryY=0.487;entryDx=0;entryDy=0;entryPerimeter=0;exitX=0;exitY=0.3333333333333333;exitDx=0;exitDy=0;exitPerimeter=0;strokeWidth=2;fontSize=12;" parent="1" source="WvFcS5sh8y-C_8AQDAxK-79" target="WvFcS5sh8y-C_8AQDAxK-70" edge="1">
                    <mxGeometry relative="1" as="geometry"/>
                </mxCell>
                <mxCell id="WvFcS5sh8y-C_8AQDAxK-81" style="rounded=0;orthogonalLoop=1;jettySize=auto;html=1;entryX=0.991;entryY=0.529;entryDx=0;entryDy=0;entryPerimeter=0;endArrow=none;startFill=0;strokeWidth=2;fontSize=12;" parent="1" source="WvFcS5sh8y-C_8AQDAxK-70" target="WvFcS5sh8y-C_8AQDAxK-72" edge="1">
                    <mxGeometry relative="1" as="geometry"/>
                </mxCell>
                <mxCell id="WvFcS5sh8y-C_8AQDAxK-84" style="edgeStyle=none;rounded=0;orthogonalLoop=1;jettySize=auto;html=1;strokeWidth=2;fontSize=12;" parent="1" source="WvFcS5sh8y-C_8AQDAxK-75" target="WvFcS5sh8y-C_8AQDAxK-73" edge="1">
                    <mxGeometry relative="1" as="geometry">
                        <mxPoint x="606" y="435.5" as="targetPoint"/>
                    </mxGeometry>
                </mxCell>
                <mxCell id="WvFcS5sh8y-C_8AQDAxK-86" style="edgeStyle=none;rounded=0;orthogonalLoop=1;jettySize=auto;html=1;entryX=0.907;entryY=0.842;entryDx=0;entryDy=0;entryPerimeter=0;exitX=0.34;exitY=0.109;exitDx=0;exitDy=0;exitPerimeter=0;endArrow=classic;startFill=0;endFill=1;strokeWidth=2;fontSize=12;" parent="1" source="WvFcS5sh8y-C_8AQDAxK-68" target="WvFcS5sh8y-C_8AQDAxK-72" edge="1">
                    <mxGeometry relative="1" as="geometry"/>
                </mxCell>
                <mxCell id="WvFcS5sh8y-C_8AQDAxK-89" style="edgeStyle=none;rounded=0;orthogonalLoop=1;jettySize=auto;html=1;entryX=0;entryY=0.5;entryDx=0;entryDy=0;strokeWidth=2;fontSize=12;" parent="1" source="WvFcS5sh8y-C_8AQDAxK-87" target="WvFcS5sh8y-C_8AQDAxK-75" edge="1">
                    <mxGeometry relative="1" as="geometry"/>
                </mxCell>
                <mxCell id="WvFcS5sh8y-C_8AQDAxK-87" value="Płatność" style="ellipse;shape=umlControl;whiteSpace=wrap;html=1;strokeWidth=2;fontSize=12;" parent="1" vertex="1">
                    <mxGeometry x="86" y="377.5" width="84" height="93" as="geometry"/>
                </mxCell>
                <mxCell id="WvFcS5sh8y-C_8AQDAxK-90" style="edgeStyle=none;rounded=0;orthogonalLoop=1;jettySize=auto;html=1;strokeWidth=2;fontSize=12;" parent="1" source="WvFcS5sh8y-C_8AQDAxK-87" target="WvFcS5sh8y-C_8AQDAxK-74" edge="1">
                    <mxGeometry relative="1" as="geometry">
                        <mxPoint x="212" y="316.5" as="targetPoint"/>
                    </mxGeometry>
                </mxCell>
                <mxCell id="WvFcS5sh8y-C_8AQDAxK-93" style="edgeStyle=none;rounded=0;orthogonalLoop=1;jettySize=auto;html=1;strokeWidth=2;fontSize=12;" parent="1" source="WvFcS5sh8y-C_8AQDAxK-91" target="WvFcS5sh8y-C_8AQDAxK-87" edge="1">
                    <mxGeometry relative="1" as="geometry"/>
                </mxCell>
                <mxCell id="WvFcS5sh8y-C_8AQDAxK-91" value="&lt;div&gt;&lt;span style=&quot;background-color: light-dark(rgb(251, 251, 251), rgb(21, 21, 21)); color: light-dark(rgb(0, 0, 0), rgb(237, 237, 237)); caret-color: light-dark(rgb(0, 0, 0), rgb(237, 237, 237)); text-wrap-mode: nowrap;&quot;&gt;Przedłużenie&lt;/span&gt;&lt;/div&gt;&lt;div&gt;&lt;span style=&quot;caret-color: rgb(0, 0, 0); color: rgb(0, 0, 0); font-family: Helvetica; font-style: normal; font-variant-caps: normal; font-weight: 400; letter-spacing: normal; text-align: center; text-indent: 0px; text-transform: none; white-space: nowrap; word-spacing: 0px; -webkit-text-stroke-width: 0px; background-color: rgb(251, 251, 251); text-decoration: none; float: none; display: inline !important;&quot;&gt;&amp;nbsp;karnetu&lt;/span&gt;&lt;/div&gt;" style="ellipse;shape=umlControl;whiteSpace=wrap;html=1;strokeWidth=2;fontSize=12;" parent="1" vertex="1">
                    <mxGeometry x="85" y="681" width="84" height="93" as="geometry"/>
                </mxCell>
                <mxCell id="WvFcS5sh8y-C_8AQDAxK-98" style="edgeStyle=none;rounded=0;orthogonalLoop=1;jettySize=auto;html=1;strokeWidth=2;fontSize=12;" parent="1" source="WvFcS5sh8y-C_8AQDAxK-94" target="WvFcS5sh8y-C_8AQDAxK-91" edge="1">
                    <mxGeometry relative="1" as="geometry"/>
                </mxCell>
                <mxCell id="WvFcS5sh8y-C_8AQDAxK-94" value="&lt;div&gt;Formularz przedłużenia&amp;nbsp;&lt;/div&gt;" style="shape=umlBoundary;whiteSpace=wrap;html=1;strokeWidth=2;fontSize=12;" parent="1" vertex="1">
                    <mxGeometry x="730" y="687.5" width="100" height="80" as="geometry"/>
                </mxCell>
                <mxCell id="WvFcS5sh8y-C_8AQDAxK-100" value="Komunikat" style="shape=umlBoundary;whiteSpace=wrap;html=1;strokeWidth=2;fontSize=12;" parent="1" vertex="1">
                    <mxGeometry x="730" y="461" width="100" height="80" as="geometry"/>
                </mxCell>
                <mxCell id="WvFcS5sh8y-C_8AQDAxK-102" style="edgeStyle=none;rounded=0;orthogonalLoop=1;jettySize=auto;html=1;entryX=0;entryY=0.3333333333333333;entryDx=0;entryDy=0;entryPerimeter=0;strokeWidth=2;fontSize=12;" parent="1" source="WvFcS5sh8y-C_8AQDAxK-100" target="WvFcS5sh8y-C_8AQDAxK-64" edge="1">
                    <mxGeometry relative="1" as="geometry">
                        <mxPoint x="898" y="535.5" as="targetPoint"/>
                    </mxGeometry>
                </mxCell>
                <mxCell id="WvFcS5sh8y-C_8AQDAxK-103" style="edgeStyle=none;rounded=0;orthogonalLoop=1;jettySize=auto;html=1;entryX=0;entryY=0.3333333333333333;entryDx=0;entryDy=0;entryPerimeter=0;exitX=0.958;exitY=0.202;exitDx=0;exitDy=0;exitPerimeter=0;strokeWidth=2;fontSize=12;" parent="1" source="WvFcS5sh8y-C_8AQDAxK-100" target="WvFcS5sh8y-C_8AQDAxK-79" edge="1">
                    <mxGeometry relative="1" as="geometry"/>
                </mxCell>
                <mxCell id="WvFcS5sh8y-C_8AQDAxK-108" style="edgeStyle=none;rounded=0;orthogonalLoop=1;jettySize=auto;html=1;entryX=-0.005;entryY=0.464;entryDx=0;entryDy=0;entryPerimeter=0;strokeWidth=2;fontSize=12;" parent="1" source="WvFcS5sh8y-C_8AQDAxK-73" target="WvFcS5sh8y-C_8AQDAxK-100" edge="1">
                    <mxGeometry relative="1" as="geometry"/>
                </mxCell>
                <mxCell id="WvFcS5sh8y-C_8AQDAxK-109" style="edgeStyle=none;rounded=0;orthogonalLoop=1;jettySize=auto;html=1;entryX=0.008;entryY=0.529;entryDx=0;entryDy=0;entryPerimeter=0;strokeWidth=2;fontSize=12;endArrow=none;startFill=0;" parent="1" source="WvFcS5sh8y-C_8AQDAxK-74" target="WvFcS5sh8y-C_8AQDAxK-72" edge="1">
                    <mxGeometry relative="1" as="geometry"/>
                </mxCell>
                <mxCell id="R5LkbAGLjqBZ2HUUASeN-37" value="&lt;span style=&quot;white-space: nowrap;&quot;&gt;Algorytm&amp;nbsp;&lt;/span&gt;&lt;div&gt;&lt;span style=&quot;white-space: nowrap;&quot;&gt;naliczania&amp;nbsp;&lt;/span&gt;&lt;/div&gt;&lt;div&gt;&lt;span style=&quot;white-space: nowrap;&quot;&gt;punktów&lt;/span&gt;&lt;/div&gt;" style="ellipse;shape=umlControl;whiteSpace=wrap;html=1;strokeWidth=2;fontSize=12;align=center;" parent="1" vertex="1">
                    <mxGeometry x="360" y="144" width="85" height="93" as="geometry"/>
                </mxCell>
                <mxCell id="R5LkbAGLjqBZ2HUUASeN-38" style="edgeStyle=none;rounded=0;orthogonalLoop=1;jettySize=auto;html=1;entryX=0.012;entryY=0.527;entryDx=0;entryDy=0;entryPerimeter=0;endArrow=none;startFill=0;strokeWidth=2;" parent="1" source="WvFcS5sh8y-C_8AQDAxK-74" target="R5LkbAGLjqBZ2HUUASeN-37" edge="1">
                    <mxGeometry relative="1" as="geometry"/>
                </mxCell>
                <mxCell id="R5LkbAGLjqBZ2HUUASeN-39" style="edgeStyle=none;rounded=0;orthogonalLoop=1;jettySize=auto;html=1;entryX=0.206;entryY=0.044;entryDx=0;entryDy=0;entryPerimeter=0;strokeWidth=2;endArrow=none;startFill=0;" parent="1" source="R5LkbAGLjqBZ2HUUASeN-37" target="WvFcS5sh8y-C_8AQDAxK-75" edge="1">
                    <mxGeometry relative="1" as="geometry"/>
                </mxCell>
            </root>
        </mxGraphModel>
    </diagram>
</mxfile>